<svg width="18" height="18" viewBox="0 0 18 18" fill="none" xmlns="http://www.w3.org/2000/svg">
<path d="M9 0C4.0302 0 0 4.0302 0 9C0 13.9698 4.0302 18 9 18C13.9698 18 18 13.9698 18 9C18 4.0302 13.9698 0 9 0ZM14.1368 11.1307C14.1118 11.6808 14.0243 12.0564 13.8966 12.3852C13.6281 13.0794 13.0794 13.6281 12.3852 13.8966C12.0565 14.0243 11.6808 14.1117 11.1308 14.1368C10.5797 14.1619 10.4036 14.168 9.00014 14.168C7.5965 14.168 7.42058 14.1619 6.86934 14.1368C6.31934 14.1117 5.9436 14.0243 5.61497 13.8966C5.27 13.7668 4.95772 13.5634 4.69954 13.3005C4.43669 13.0424 4.23331 12.73 4.10353 12.3852C3.97581 12.0565 3.88834 11.6808 3.86334 11.1308C3.83794 10.5796 3.83203 10.4035 3.83203 9C3.83203 7.5965 3.83794 7.42044 3.8632 6.86934C3.8882 6.3192 3.97554 5.9436 4.10326 5.61484C4.23303 5.27 4.43655 4.95758 4.69954 4.69954C4.95758 4.43655 5.27 4.23317 5.61484 4.10339C5.9436 3.97568 6.3192 3.88834 6.86934 3.8632C7.42044 3.83807 7.5965 3.83203 9 3.83203C10.4035 3.83203 10.5796 3.83807 11.1307 3.86334C11.6808 3.88834 12.0564 3.97568 12.3852 4.10326C12.73 4.23303 13.0424 4.43655 13.3006 4.69954C13.5634 4.95772 13.767 5.27 13.8966 5.61484C14.0245 5.9436 14.1118 6.3192 14.1369 6.86934C14.1621 7.42044 14.168 7.5965 14.168 9C14.168 10.4035 14.1621 10.5796 14.1368 11.1307Z" fill="white"/>
</svg>
